<svg height="1024" viewBox="0 0 1024 1024" width="1024" xmlns="http://www.w3.org/2000/svg" xmlns:xlink="http://www.w3.org/1999/xlink"><defs><linearGradient id="a" x1="50%" x2="50%" y1="0%" y2="100%"><stop offset=".00055241428" stop-color="#ff8d73"/><stop offset="1" stop-color="#ff4519"/></linearGradient><path id="b" d="m429.470872 261.452951c4.142135 0 7.5 3.357865 7.5 7.5 0 1.702462-.567243 3.272437-1.52304 4.531235 4.935935 1.936866 8.596112 6.414483 9.370758 11.823277.100355.700702.152282 1.417031.152282 2.145488 0 4.491281-1.973899 8.521532-5.101501 11.270559 2.214914 2.715312 4.036064 6.164638 5.989466 9.567035l.433435.749772c2.761329 4.739796 5.856398 9.275739 10.7177 11.476431 12.792901 5.791295 22.525712-5.636474 31.956475 0 5.013822 2.996606 5.958596 8.810522 6.676199 14.304288l.101385.782307c.587233 4.546801 1.143757 8.767524 3.89288 10.846508 3.065201 2.318015 7.462214.613569 12.070884-.849213l.67582-.211846c4.513809-1.394203 9.177065-2.360405 12.949594 1.061059 5.218665 4.733026 5.218665 14.12201 0 28.166954l-18.985137 23.320755c-1.423263 15.97274-2.134895 26.516297-2.134895 31.630671 6.025465 1.330568 26.825524 15.973306 4.022645 33.59638 2.440933 15.04099 10.105744 50.005406 49.708822 63.457574 13.369984 3.003814 34.522538-9.086185 55.631185-12.330464 21.065144-4.486562 53.020713 7.063806 33.123581 65.659054-5.842722 1.336191-10.507682-.48798-13.99488-5.472515 6.28754-28.985272 4.399262-45.433129-5.664832-49.343572-12.670725-6.915366-38.916046 27.404367-81.49794 10.302926-28.387929-11.400961-44.896036-28.892321-49.52432-52.474081-11.270063 15.267531-22.57705 25.039473-33.920962 29.315828-.039486 1.627272.190332 4.69831.689457 9.213112l.093717.836782c.322283 2.842306.743485 6.21492 1.263605 10.117843 33.907099 5.235053 57.198428 14.533628 69.873986 27.895726 38.962329 26.572051 55.245325 87.339245 48.611949 105.33249-6.633375 17.993245-266.500364 11.49889-269.829407 0-3.329043-11.498891 0-26.387548 11.946865-45.781495-8.758003-5.797238-26.887223-29.883924-20.404423-52.241954 7.727881-15.83181 16.284117-26.162854 24.664751-36.320236l1.116289-1.353756 1.113679-1.354504c9.45368-11.524412 18.567185-23.433975 25.879052-43.483374l2.352956-21.954416c-8.243976-8.162965-7.73143-15.245487 1.537639-21.247568.733473-3.932916 1.347948-9.562724 1.833807-15.299804l.082028-.984254c.807649-9.847112 1.235706-19.742525 1.235706-21.67788l-26.244052-26.591581c-5.989312-8.942158-6.798711-14.872411-2.428199-17.790759 6.555769-4.377522 16.844751 2.80397 25.52071-8.226183 8.67596-11.030153-3.799115-23.001376 5.450305-30.850802s16.260631 7.57771 33.844739 0c12.157784-5.239285 14.426734-15.825042 19.440731-22.093361-2.936142-2.737519-4.771494-6.639642-4.771494-10.970436 0-6.064449 3.598879-11.288335 8.777429-13.65245-1.108837-1.307099-1.777429-2.999245-1.777429-4.84755 0-4.142135 3.357864-7.5 7.5-7.5zm-52.280823 215.256538c-7.722298 53.655623-18.544045 28.183307-53.98412 98.533132-4.821821 8.223352-.707112 12.887403 4.518573 18.091208l.420277.417534c1.619007 1.605555 3.322871 3.272152 4.885899 5.118007 15.413121-30.820153 43.693136-52.104443 84.840044-63.852871-.490364-6.252155-.490364-14.085666 0-23.500533-20.40559-6.002319-32.861893-20.069819-35.584075-26.946024 0-7.278288-.740024-6.651241-5.096598-7.860453z"/><filter id="c" height="145.7%" width="154.3%" x="-27.1%" y="-13.2%"><feOffset dx="0" dy="40" in="SourceAlpha" result="shadowOffsetOuter1"/><feGaussianBlur in="shadowOffsetOuter1" result="shadowBlurOuter1" stdDeviation="25"/><feColorMatrix in="shadowBlurOuter1" type="matrix" values="0 0 0 0 0.889663033   0 0 0 0 0.169252967   0 0 0 0 0  0 0 0 0.8 0"/></filter><filter id="d" height="126.5%" width="131.4%" x="-15.7%" y="-3.6%"><feGaussianBlur in="SourceAlpha" result="shadowBlurInner1" stdDeviation="2.5"/><feOffset dx="5" dy="-5" in="shadowBlurInner1" result="shadowOffsetInner1"/><feComposite in="shadowOffsetInner1" in2="SourceAlpha" k2="-1" k3="1" operator="arithmetic" result="shadowInnerInner1"/><feColorMatrix in="shadowInnerInner1" type="matrix" values="0 0 0 0 1   0 0 0 0 0.583333333   0 0 0 0 0.5  0 0 0 1 0"/></filter></defs><g fill="none" fill-rule="evenodd" transform="translate(-102.671232 -110.469666)"><rect fill="url(#a)" height="1024" rx="180" width="1024" x="102.671232" y="110.469666"/><g stroke="#fbe242" stroke-width="10"><path d="m48 907.469666c652.218923-185.52837 1041.30219-175.861703 1167.24981 29" opacity=".15"/><path d="m1227.24981 1108.02386c-550.015264-139.751311-946.948842-145.422749-1190.8007364-17.01432" opacity=".152701"/><path d="m0 327.469666c652.218923-185.52837 1041.30219-175.861703 1167.24981 29" opacity=".152701"/><path d="m1251.24981 595.023859c-550.015264-139.75131-946.948842-145.422748-1190.8007364-17.014315" opacity=".152701"/><path d="m-120 646.469666c652.218923-185.52837 1041.302192-175.861703 1167.24981 29" opacity=".152701" transform="matrix(0 1 -1 0 1058.46691 131.217102)"/><path d="m820.249808 677.023859c-550.015262-139.75131-946.94884-145.422748-1190.800734-17.014315" opacity=".152701" transform="matrix(0 1 -1 0 847.249808 397.550926)"/><path d="m103 658.469666c652.218923-185.52837 1041.30219-175.861703 1167.24981 29" opacity=".152701" transform="matrix(0 1 -1 0 1293.46691 -79.782898)"/><path d="m1547.24981 650.023859c-550.015264-139.75131-946.948842-145.422748-1190.800736-17.014315" opacity=".15" transform="matrix(0 1 -1 0 1547.249808 -356.449074)"/></g><g opacity=".898398"><use fill="#000" filter="url(#c)" xlink:href="#b"/><use fill="#fff" fill-rule="evenodd" xlink:href="#b"/><use fill="#000" filter="url(#d)" xlink:href="#b"/></g></g></svg>